<?xml version="1.0" standalone="no"?>
<!DOCTYPE svg PUBLIC "-//W3C//DTD SVG 20010904//EN"
 "http://www.w3.org/TR/2001/REC-SVG-20010904/DTD/svg10.dtd">
<svg version="1.0" xmlns="http://www.w3.org/2000/svg"
 width="297.000000pt" height="297.000000pt" viewBox="0 0 297.000000 297.000000"
 preserveAspectRatio="xMidYMid meet">
<metadata>
Created by potrace 1.11, written by Peter Selinger 2001-2013
</metadata>
<g transform="translate(0.000000,297.000000) scale(0.100000,-0.100000)"
fill="#000000" stroke="none">
<path d="M1411 2206 l0 -708 250 -252 251 -251 -6 -40 c-10 -64 -65 -166 -121
-221 -141 -141 -350 -166 -522 -62 -93 56 -164 151 -193 258 -7 26 -12 104
-12 182 l1 137 -102 99 c-342 332 -448 432 -457 432 -14 0 0 -882 15 -930 1
-3 5 -23 10 -45 32 -162 154 -369 292 -495 136 -124 336 -225 488 -246 28 -3
59 -8 70 -11 26 -5 194 -5 220 1 11 2 41 7 67 10 64 9 186 49 261 87 229 116
412 322 492 556 15 42 29 86 31 97 2 12 6 34 10 49 11 50 13 80 14 163 l1 82
-86 86 c-48 47 -90 84 -94 81 -5 -2 -9 -78 -9 -167 -2 -146 -8 -203 -36 -309
-2 -9 -19 -47 -36 -85 -89 -192 -263 -351 -456 -418 -98 -34 -113 -37 -244
-43 -172 -8 -312 30 -456 122 -59 38 -204 171 -204 187 0 5 -9 18 -19 30 -23
23 -94 166 -109 218 -26 88 -34 166 -34 342 0 105 2 192 4 193 2 2 43 -34 90
-81 l87 -86 0 -101 c1 -56 3 -115 6 -132 44 -237 209 -424 433 -490 135 -40
277 -34 405 16 227 90 392 331 388 569 l0 44 -250 251 -249 250 2 573 1 572
-97 97 -97 97 0 -708z"/>
</g>
</svg>
